/* XPM */
static char *_881_13600a34ac02cd29e08c0b73a5996459fd40d38ed067f607a048910236338d25[] = {
/* columns rows colors chars-per-pixel */
"64 64 214 2 ",
"   c #210E10",
".  c #2C1B1D",
"X  c #261416",
"o  c #311F1D",
"O  c #32201E",
"+  c #2F1F20",
"@  c #321E21",
"#  c #332122",
"$  c #392425",
"%  c #3B2629",
"&  c #3C2A2B",
"*  c #352628",
"=  c #3A302E",
"-  c #3D3532",
";  c #422C2F",
":  c #443234",
">  c #493236",
",  c #4B343B",
"<  c #4C3A3C",
"1  c #483637",
"2  c #523D3D",
"3  c #53373C",
"4  c #453133",
"5  c #57423D",
"6  c #543D42",
"7  c #5A3B41",
"8  c #4E4845",
"9  c #554343",
"0  c #5A4443",
"q  c #5D4B45",
"w  c #5C454A",
"e  c #5D4B4B",
"r  c #56464A",
"t  c #5C524D",
"y  c #5E4C51",
"u  c #5F5455",
"i  c #634946",
"p  c #62474C",
"a  c #634C4D",
"s  c #694C4C",
"d  c #634547",
"f  c #64524D",
"g  c #6A524F",
"h  c #71524F",
"j  c #644E53",
"k  c #684F52",
"l  c #614750",
"z  c #655253",
"x  c #6B5555",
"c  c #6C5A55",
"v  c #66555A",
"b  c #6C555A",
"n  c #635C5B",
"m  c #6D5B5B",
"M  c #655A56",
"N  c #735553",
"B  c #725B56",
"V  c #705459",
"C  c #735C5C",
"Z  c #7A5E5D",
"A  c #795E53",
"S  c #6F6059",
"D  c #74625D",
"F  c #7A635E",
"G  c #786C5E",
"H  c #6C5C62",
"J  c #755D61",
"K  c #7A5F63",
"L  c #6D6364",
"P  c #756463",
"I  c #7B6564",
"U  c #756A64",
"Y  c #7D6A64",
"T  c #746569",
"R  c #7B6669",
"E  c #766B6A",
"W  c #7C6B6B",
"Q  c #7C716D",
"!  c #7A7169",
"~  c #7E6E71",
"^  c #7E7573",
"/  c #7E7976",
"(  c #825E5E",
")  c #81625F",
"_  c #826562",
"`  c #836B65",
"'  c #826D6B",
"]  c #8A6D6A",
"[  c #856A68",
"{  c #837265",
"}  c #84736C",
"|  c #8A746D",
" . c #87796E",
".. c #8B796F",
"X. c #91756F",
"o. c #90786C",
"O. c #836D72",
"+. c #896D74",
"@. c #866C76",
"#. c #847372",
"$. c #8A7573",
"%. c #857A73",
"&. c #8C7B74",
"*. c #8C747A",
"=. c #857B79",
"-. c #8D7C7A",
";. c #85757A",
":. c #927672",
">. c #927C75",
",. c #937D7A",
"<. c #9B7E7A",
"1. c #977A76",
"2. c #8D8075",
"3. c #8E837C",
"4. c #938176",
"5. c #94837C",
"6. c #9A847D",
"7. c #958A7D",
"8. c #9A8A7D",
"9. c #9B8077",
"0. c #A1827E",
"q. c #A2897D",
"w. c #8E7B81",
"e. c #947E81",
"r. c #8F8180",
"t. c #948482",
"y. c #9A8583",
"u. c #968A81",
"i. c #9C8B83",
"p. c #9B8689",
"a. c #9D8C8A",
"s. c #958888",
"d. c #9D9185",
"f. c #9D928B",
"g. c #9F998D",
"h. c #9E9391",
"j. c #A18D85",
"k. c #A28E8A",
"l. c #A38783",
"z. c #A29285",
"x. c #A39887",
"c. c #A3948B",
"v. c #AA958C",
"b. c #A59A8D",
"n. c #AB9B8D",
"m. c #A38F91",
"M. c #A59592",
"N. c #AB9592",
"B. c #A59A92",
"V. c #AC9C93",
"C. c #AE9799",
"Z. c #AC9C99",
"A. c #A59B99",
"S. c #B19D94",
"D. c #B29E9A",
"F. c #B29790",
"G. c #B29C8E",
"H. c #ADA194",
"J. c #AEA19A",
"K. c #B2A295",
"L. c #B4A49A",
"P. c #BAA69D",
"I. c #B5AA9B",
"U. c #BBAB9D",
"Y. c #B8A496",
"T. c #BCB29E",
"R. c #AFA6A1",
"E. c #B3A5A2",
"W. c #BAA6A2",
"Q. c #B6A9A1",
"!. c #BCACA2",
"~. c #BDADA8",
"^. c #B7AEA9",
"/. c #BDB1A4",
"(. c #BEB2A9",
"). c #C1A99D",
"_. c #C0B59F",
"`. c #C1ADA4",
"'. c #C4ADA9",
"]. c #C6A9A4",
"[. c #C3B3A5",
"{. c #C9B4A7",
"}. c #C3BAA5",
"|. c #C4B4AA",
" X c #C9B6AC",
".X c #C6BAAB",
"XX c #CBBBAD",
"oX c #C8BDA7",
"OX c #D0BDAF",
"+X c #C4B5B1",
"@X c #CAB6B1",
"#X c #C7BAB2",
"$X c #CCBCB2",
"%X c #CDBFB9",
"&X c #D1BDB3",
"*X c #D3BFB9",
"=X c #D0B7B0",
"-X c #CFC3AE",
";X c #CEC1B3",
":X c #CEC2B9",
">X c #D2C3B5",
",X c #D4C4BA",
"<X c #D9C6BB",
"1X c #D6C9BB",
"2X c #DCCBBD",
"3X c #DCD1BE",
"4X c #E2CCBE",
"5X c #DCCCC2",
"6X c #D6C8C0",
"7X c #DED1C4",
"8X c #E1CFC4",
"9X c #E2D2C5",
"0X c #E7D6CC",
"qX c #E8D7D0",
/* pixels */
"n t 8 - L Z.s.c.t.$.,.5.,.y.N.t.l.N.S.y.P Z Y Z } <.s x N N h ( ( K s V ' y.R ' #.c v m c C k m x c c O o . . X , 6 j > , l r j ",
"n 8 - = %.Q.c.-.Y I } &.#.$.5.6.8.v.F.<.I F I D Y y.C N h A h h N i 0 N ' v.5.W c c c v x x p C g D i.4 % O   o < 6 y , 6 % k H ",
"E E S 2.I.~.U.K.U.L.S.n.S.v.v.v.n.S.W.[.!.!.L.!.'.&X].F.F.S.].).P.k.k.Y.`.$X!.c.d.c.f.i.a.i. . ...] S.-.' ' #.} m C a 9 0 6 +.O.",
"/ f./ ^ U } W c P F { ' F I k.,.C | c.-.Y -.,.>.z.V.D. X=XP.].U.=X X{.{.XX$X.XXX$XXX.X$X|.|.W.S.n.v.c.b.N.k.k.t.i.M.,.*.*.*.1.O.",
"u / n r r L P e 9 5 i x c 2 I 0 a a C j < 0 z m -.#.W !.y.,.C B } S.U.V.P.H.b.c.H.Z.H.H.f.u.c.j.l.6.p.1.' R a a H J J J O.b j j ",
"E / H u y r e e 2 0 2 5 Z D :.o % 6 R m z v R W #.#.#.~.&.$.Y :.| K.`.K.L.L.K.B.H.L.A.Z.V.i.k.i.C.1.,.[ J J R +.@.@.v V R l j b ",
"L w.u r 9 1 1 2 5 2 h F d i F.6.N k x z m D } 5.' W  .K.i.8...G G G.Y.K.K.G.V.H.n.K.z.c.V.i.V.k.y.8.$.[ e.} ` -.,.,.C W +.H J V ",
"L A.=.=.=.#.}  .' ` S N F j.=X].k.N.k.5.v.z.j.j.y.i.i.U.6.z.6.4.{ _._.n.n.n.x.H.H.n.v.x.4.&.D.S.| 8.>. .$.$.' { $.-.' -.R 6 w j ",
"a.M.A.A.Z.M.C.P.'.'.'. X=X=X).F.].].'.'.@X<X<X2X<X2X9X<X2X>X4X>XOX2X&X>X>XXX>XXXXXXX$X X!.@X|.|.U.V.K.Q.L.L.~.Q.L.C.C.B.t.R f D ",
"v e r 1 9 5 e D D I I ].).[ F ] [ [ ] [ [ :.6.j.{.OXOXOXOXOX-XXXoX X[. XXX&XS.j.>.>.-.,.4.$.>.>.k.B.P.J.v.Z.B.Z.B.Z.c.t.s.t.#.-.",
": b 9 < 1 j R P x c p V.l.h ( ] ] _ _ _ _ ] | o.F. XXX&X[.).).XX&XXX`.U.D.W.&.Y ' } i.` R F R $.5.3.Z.J.f.i.c.t.a.A.s.5.5.;.~ T ",
"9 e c < 9 m P Y c c Z N.| N _ ) :.] K _ _ | <.S.OXOX X{.{._.).].'.`.'.'.L.P...` ' } j.R P ' W ' 5.t.J.J.J.5.g.2.i.h.s.s.-.#.;.T ",
"0 2 0 1 q I D D S N | F.o.A ) ) :.:.X.] o.o.1.G.&X{.).).).U.oXoX}.U.U.}.[.U.8.2.|  .4.| ` I { D c 2.x.7.b.d.d.d.u.5.%.4.$.} 5.W ",
"b.v.2.K.V.Q.I.!.XX XU.[.P.F.q.9.F.].=X{.=X{.[.OX4X>X_._.OX&X-XoX-XT.T.oX1X>X$X}.n.z.b.K.c.z.v.c.K.(.;XT.J.K.7.d.d.5.Y P c c } W ",
"P.P.|.5.5.z.Z.V.j.L.V.F.).OX).Y.'.D.k.j.F.).Y.v.v.K.).P.XX$X>X>X;XoX.X.X-XXX;XXX>X|.|.+X$X>X$X$X+X|.$X#X!.|.!.P.H.L.N.v.p.-.,.*.",
"Y &.k.q q f #.$.} &.:.:.] 0.1.F.,.] :.>.$.>.>.4.>.9.9.>.|.!.P.L.H.H.I.H.x.c.b.n.z.|.I.v.j.5.c.t.5.f.f.7.3.3.c.5.t.u.#.R ' C b K ",
"P &.t.c q Y &.$.} >.} } 6.9.<.!.y.1.>.8.1.1.j.6.>.:.4.9.|.U.).v.x.b.H.7.d.b.d.b.b./.J.c.z.b.i.y.f.A.5.u.z.i.z.-.i.i.#.m z x b V ",
"} } 5.i f y.i.&.| &.6.6.j. .4.'.| C 6.:.$.j.j.j.9.8.8.9.$XL.K.K.c.d.g.d.x.d.d.7.8.I.J.&.S 2.W } c.h.M.H.S.5.c.i.5.y.%.#.a b K V ",
"c Y N.Y f F F } Y ..j.8.c.v.Y. Xv.| l.l.l.j.N.n.G.v.q.x.4XU.x.n.b.z.d.x.b.x.V.z.b.U.D.v.a.z.M.N.u.y.i.f.i.-.K.>.2.b.&.%.R K b R ",
"P.P.$X@X!.L.[.{.S.`.XXXX>X8X<X<X&X>X*X>X<X>X<X XoX>X<X1X<X>XOXXXXX;X>X;X.X.X>X>X,X9X,X*X5X*X<X|.|.!.(.I.S.}.{.K.B.I.J.P.~.D.m.C.",
"i.c.c.K.V.U.XXXX2X>X<X{.oXn.G.U.Y.U.U.K.Y.[.U.XXXXI.G.U.U.}.}./.|.|.}.[._.[.j.x.x.i.4.4.>.y.<.N.J.@X|.K.S.Y.U.oX/.!.L.z.k.v.p.$.",
"8.d.q.z.8.n.z.8.Y.U.U.K.z.9.8.n.z.8.8.d.d.V.8.U.}.Y.H.x.H.U.T.I.I.U.!.P.H.K.{ i.4.Y } $.| F F >.&.5.P.x.G.U.H.x.U.J.v.u.} -.$.J ",
"8.z.V.B.x.L.n.K.n.Y.U.T.q.n.8.9.n.H.z.8.8.S.K.I.oXI.I.K.I.G.K.T.T.T.I.K.K.U...c.8...>.Y :.[ >.>.5.8.!.U.n.z.Y.G..XB.u.u.D Y p.W ",
"7.d.V.z.b.U.K.K._.n.G.I.q.z.x.v.x.8.8.8.8.n.I.}.}.K.H.x.x.K.K.H.n.n.K.n.H.U. .&.7.` >.' $.:.I W G j.P.U.K.G.v.4.8.V.5.4.5.' -.B ",
"i.7.5.z.@X.X(.|.|.$X$X<X{.Y.b.8.V.S.Y.K.L.L.XX>X>X!.W.U.P.H.L.!.}.{.-X1X1X1X/./.Q.(.K.V.P.C.D.S.c.!.P.c.V.S.V.v.I.B.7.#.#.} p.R ",
"J.Q.(.+XI.|.(..X|.U.L.|.`.[.&X X'. X|.'.'.|.[.W.|. X[.>X|. X<X>X.XT.I.I.H.H.(.;X6X7X|.|.%X$X|.$X|.|.XXXX'.U.@X|..X!.L.J.V.C.C.M.",
"D i.c.Q -.z.z.k.j.c.4. .Y ..V.U.P.W.V.V.v.v.v.c.z.5.y.>.!.|.Z.v.d.x.d.7.H.7.g.g.B.Q.J.B.v.L.K.V.V.V.v.c.c.j.N.i.V.a.&.t.#.;.@.e.",
"D u.i.D U i.M.f.&.D.L.v.i.>.8.`.V. XW.S.c.V.W.P.V.S.y.4.'.W.V.|.J.H.d.2.H.g.d.H.H.J.H.b.i.A.J.V.V.k.l.j.y.8.N.z.P.f.#.-.I $.*.-.",
"M u.B.S  .c.K.v.c.Y.S.Y.P.i.i.[.i.S.L.j.8.c.K.L.!.L.8.4.XX[.4.z.U.H.b.7.d.g.b.J.J.Q.c.i.z.z.2.} i.b.v.j.j.6.z.c.+Xd.&.R z } W ' ",
"Q c.Z.q D U -.z.V.S.U.`.S.i.S.&XL.b.K.4.5.n.V.K.D.Y.8.n.,X!.|.Y.n.H.Z.I.I.B.A.H.f.|.(.b.c.x.K.B.>.-.6.4.>.c.!.y.Z.} P B i m V l ",
"|..X5X:Xn.H.P.$X X[. X X&X>X4X8XXX{.1X}.U.>X>XXX$X>X$X1X1X>X>X;XXX1X$X$X,X:X,X;X1X7X2X5X7X>X9X,X2X|.P.U.!.'. XU.|.K.p.y.l.k.D.N.",
"7.d.L.(.!.;XH.4.z.v.v.l.v.l.9.6.5.7.H.7X;XK.H.I.I.I./.n.c.x.n.XXU.P.(.v.i.V.J.i.-.B.7.3.B.d.B.z.V.P.].W.F.i.y.,.i.M.E.W.W.W.m.e.",
"} ^ =.2.B./.7.f | 1.<.0.l.<.:.1.} t u.#XB.f.u.b.c.f.z.8.i.v.j.`.N.1.i.>.Y k.-.e Q Q D } L.5.l.i.j.6.N.D.N.l.,.*.+.$.w.+.+.@.+.+.",
"2.s.3.r.g.Q.x.M o.<.0.e.<.X.$.6.%.U 3.Q.B.H.b.i.i.&.i.i.6.5.i.S.z.j.j.9.5.N.} v 5.4.#.D P.j.c.n.z.6.D.W.P.V.p.*.+.R [ *.*.K +.+.",
"E E 3.2.%.B.Z.Y  .y.j.>.] :.| | %.U i.~.V.H.Z.c.4.5.4.4.4.8.v.P.q.q.>.| &.8.} ! &.Q 2.} K.8.8.z.4.4.).K.i.8.&.Y I C c } ' I e.+.",
"W #.a.B.(.6X~.c.j.c.v.N.N.F.L.W.Q.d.|.+XB.c.i.z.V.K.P.[./.G.'.8X X[.[.[.U.L.n.i.2.5.c.J.>X[.z.n.H.I.,X.XB.c.4.#.>.} Y } [ ' m.l.",
" X,X+X@X&X*X@X*X0X6X>X6X;X@X@X<X6X5XqX5X9X9X<X0X7X2X9X9X6X,X8X,X,X$X$X>X$X#X5X6X:X>X%X:X@X,X,XXX{.T.(./.(.~.J.Q.D.M.C.C.p.*.p.y.",
"[ Z Z +._ X.1.:.P.P.J.M.c.6.5.i.i.V.V.D.'.[.$X|.{.K.H.U.|.K.S.b.c.c.v.b.v.c.J.Q.Q.(.Q.L.b.V.L.v.d.b.u.7.f.L.A.Z.m.e.,.w.P x x I ",
"s s ( Z ) ] _ <.S.S.b.v.z.>.:.9.4.>.j.L.L.n. XG.8.H.L.K..XU.I.L.c.z.c.f.B.f.A.Q.J.~.a.5.V.V.d.i.-.L.c.M.A.~.C.-.#.W +._ J V d V ",
"s s N h ( _ 1.:.N.Z.v.4.4.6.6.q.j.4.z.F.K.V.{.n.K.n.I.K./.L.K.B.V.a.B.c.c.c.H.L.I.L.B.7.Q 5.d.U } j.#.k.M.!.m.P b b l k V s 7 s ",
"i A N A ( _ [ _ f.H.i.-. .4.<.1.>.o.9.j.z.n.[.9.8.q.8.H.{.T.H.H.b.d.b.n.x.b.g.8.T.-Xg.7.2.G !  .2.&.I U &.^.t.^ W w j b l 7 d 3 ",
"v.N.V.b.k.j.F.'.:X#X(.1X>X8X>XOX X`.).U.U.XX4X>X>XXX.X1XqX;XB..X(.{.(.T.H.x.x.T.-X3X1X-X-X-X;X>X.XQ.L.A.Q.%X#X(.E.V.D.M.N.l.e.1.",
"(.^.(.#X,X1X1X<X1X:X1X7X>X>X>X<X2X1X2X>X2X7X3X4X2X9X1X>X;X7X9X,X;X1X>X7X1X;X>X-XoX/.T.T.(.-X^.J.Q.Q.(.R.f.f.h.s.s.t.t.r.p.w.*.m.",
"d.2.3.d.f.A.b.f.g.2.7.b.|./.[.[. X{.[.{.XX{.}.{.XX>XH.V.b.b.B.H.B.f.H./.(.(.;XI.H.d.g.d.u.u.2.u.u.g.^.f.U E ! L L n L H v y b *.",
"b.2.3.g.f.u.u.g.3.2.2.d..X}././.}./.U./.XX.XXX;X,X$XK.d.5.z.d.B.c.f.i.f.Q.J.|.Q.H.b.H.H.h.h.h.s.B.f.^.h.E / / / L L H H K T T @.",
"d.2.7.b.J.g.u.d.&.5.3.H..X{.I.T.U.T.I.-XoXXXXXoX1XXXI.b.2.&.3.&.Q #.-.3.c.b.(.c.b.f.u.7.f.J.J.g.h.f.^.f.Q / Q ^ L H H u H H H w.",
"` | 2.2.3.3.7.3.:.5.i.[.;XL.H.H.!./.(.-X{..X}..XXX>Xn.i.i.-.i.i.t.5.u.2...d.>X}.K.U./.T.J.g.s.3.5.z..XQ.H.h.r.^ E E W J J j R C.",
"z.c.8.g.J.^.(.-X[.>X&X>X9X4X7X.X-X;X>X;X;X1XXX1X7X5X,X;X;XXX,X5X7X,X$X;X;X1X9X3X7X3X7X7X:X;X(.;X|.U.Q.|.+X#X:X#XA.s.m.e.*.@.+.w.",
"6.i.(..X.XI.U.I.T.T._.oXoX-X3XoX}.-XT.T.(././.(.(.(.U..X;X1X.X}./.-X(.-X-X(.(././.>XQ.L.B.b.v.Z.i.%.%.-.t.R E.W 0 w 6 w 7 3 l 6 ",
"c U c.L.(.J.H.I.I._.}.}.}.}.oX}.J.!.g.H.^.H.J.|.L.U.(..X.X!.}./.T.^./.H.I.I.T.I.T.Q.H.c.i.&.t.&.#.-.W #.#.R m.w 6 j 6 > 6 6 6 7 ",
"a m A.~.!.P.P.U.}.oX.X.X{..X1X!.I.(.c.i.(.(.K.V.M.P.!.Q.!.|.(.~.(.(.^.J.I.^.J.A.b.+XJ.u.;.U r.m E r.W ~ T P a.P , 6 6 > 6 6 ; 6 ",
"< z Z.'.Z.L.P.K.).-X.X[.}.H.L.|.K.S.t.j.H.u.-.,.,.V.V.i.|.Q.P.L.^.J.J.H.H.I.H.B.B.(.Z.f.y.i.w.#.=.#.^ ^ P O.E.#.r r w y v 6 6 6 ",
"5.k.$X'.V.S.P.).{.[.XX[.K.G.).<X|.[.W. X{.P.P.).x.v.`.4X5X|.@X>X;X.X$X,X;X$X(.H.Q.:X(.(.(.J.L.J.J.R.R.h.h.h.f.s.s.w.~ w.e.~ w.w.",
"*.,.1.<.v.k.4.4.n.P.8.[.[.V.V.H.D.P.[.|.[.&XXX).4XqX{.v.|.[.'.Y.I.b.B.H.B.(..Xd.I.7.u.d.Z.u.3.3.r.%.A.R.u - # * * * * * * * , ~ ",
"s B V V K Z Z W >.&.f V.8.f D Y ' _ >.:.` >.| ` F. X>.$.$.#.#.$.-.4.i.z.3.z.Q.^ %./ / U #.! =.P ! L u.a.- & # * - @ + X + - * 6 ",
"a l x C x C R C P ` C Z.5.z 0 c ' I ' C B >.' D V.|.$.#.#.] +.P W W $.5.$.f.~.W %.3.Q U ^ E E E L n 3.h.6 * . # @ @ @ + * y 6 u ",
"2 J V e k v w x P J c s.~ e z z *.C W B x c ` Y W.W.$.P ' *.P R D c m D W M.~.W W R W L #.E ^ R W P e.a.e ; * & & * % @ @ ; @ v ",
"w 6 9 b a w m ~ -.O.~ ~.A.W m Q ,.p.a.&.6.y.,.i. X6XV.M.s.c.C.M.D.k.k.N.D.@X,XZ.A.E.R.R.E.A.^.A.a.C.E.+XD.k.a.C.C.m.e.e.O.R J O.",
"i.&.$.c.E.+X+X+X+X#X+X6X6X+X.X$X6X*X<X<X<X5X<X,X>X:X%X>X X6X6X8X9X&X<X<X,X;X:X@X$X%X$X$X:X>X~.+X~.V.i.k.v.N.C.t.e.p.e.e.p.*.@.@.",
"6.L.'.p.#.k.a.s.t.-.%.#.=.f.L.(.Z.v.a.a.c.c.s.d.b.y.z.|.!.k.i.i.l.z.Y.S.N.i.&.} -.%.5.s.f.s.$.V.D P b B I m C Z j l l l R a ; 4 ",
"  Y -.m z b v T T m c E D &.t.M.#.W ' ' w.=.&.-.P -.M.Z.C.5.N.V.S.S.Q.v.k.5.' ;.-.J W t.#.W $.y.` F I C I I Z m Z p V k R 9 % ; ",
"; R T R P T -.~ W H T c H E y.s.R P E P -.%.#.E 5 n p.k.V.4.4.j.k.N.W.v.M.6.&.t.,.P #.-.+.W *.a.R x Z g 7 s Z Z V a a p O.6 $ $ ",
". C x e u a m c y 9 z f I P 5.4.e m c x #.W C c c a z i.P.{ ) | ..j.K.&.{ Y ` I B B } | Y I I j.C Z ' 6.y.K p x p 0 > 6 +.J 0 , ",
"Y d.-.c R -.#.*.W Q D c Y 5.V.H.z.v.Z.K.j.-.;.R &.i.V.XXOXY.n.Y.Y.U.&X X|.K.P.'.|.L.c.S.v.V.W.'.'.!.E.].'.D.N.y.$.+.#.-.e.p.p.-."
};
